<svg width="25" height="21" viewBox="0 0 25 21" fill="none" xmlns="http://www.w3.org/2000/svg">
<path d="M1.51367 5.71941L15.903 5.71941M15.903 5.71941C15.903 7.70617 17.5136 9.31675 19.5004 9.31675C21.4871 9.31675 23.0977 7.70617 23.0977 5.71941C23.0977 3.73265 21.4871 2.12207 19.5004 2.12207C17.5136 2.12207 15.903 3.73266 15.903 5.71941ZM8.70835 15.3123L23.0977 15.3123M8.70835 15.3123C8.70835 17.2991 7.09777 18.9097 5.11101 18.9097C3.12426 18.9097 1.51367 17.2991 1.51367 15.3123C1.51367 13.3256 3.12426 11.715 5.11101 11.715C7.09777 11.715 8.70835 13.3256 8.70835 15.3123Z" stroke="#2468FF" stroke-width="2.3" stroke-linecap="round" stroke-linejoin="round"/>
</svg>
