<svg width="27" height="28" viewBox="0 0 27 28" fill="none" xmlns="http://www.w3.org/2000/svg">
<path d="M9.63542 17.247C9.63542 18.8041 10.8977 20.0664 12.4549 20.0664H15.0729C16.7413 20.0664 18.0937 18.7139 18.0937 17.0456C18.0937 15.3772 16.7413 14.0247 15.0729 14.0247H12.6562C10.9879 14.0247 9.63542 12.6723 9.63542 11.0039C9.63542 9.33555 10.9879 7.98307 12.6562 7.98307H15.2743C16.8314 7.98307 18.0937 9.24538 18.0937 10.8025M13.8646 6.17057V7.98307M13.8646 20.0664V21.8789M25.9479 14.0247C25.9479 20.6982 20.538 26.1081 13.8646 26.1081C7.19114 26.1081 1.78125 20.6982 1.78125 14.0247C1.78125 7.3513 7.19114 1.94141 13.8646 1.94141C20.538 1.94141 25.9479 7.3513 25.9479 14.0247Z" stroke="#2468FF" stroke-width="2" stroke-linecap="round" stroke-linejoin="round"/>
</svg>
