<svg width="25" height="30" viewBox="0 0 25 30" fill="none" xmlns="http://www.w3.org/2000/svg">
<path d="M8.40968 14.3901L11.1454 17.1258L17.3009 10.9704M23.4563 15.074C23.4563 21.7881 16.1327 26.6714 13.4681 28.2259C13.1652 28.4026 13.0138 28.4909 12.8001 28.5368C12.6343 28.5723 12.3923 28.5723 12.2265 28.5368C12.0128 28.4909 11.8614 28.4026 11.5585 28.2259C8.89385 26.6714 1.57031 21.7881 1.57031 15.074V8.53228C1.57031 7.43865 1.57031 6.89184 1.74918 6.4218C1.90718 6.00656 2.16395 5.63605 2.49726 5.34231C2.87457 5.00979 3.38657 4.81779 4.41057 4.43379L11.7448 1.68344C12.0292 1.5768 12.1714 1.52348 12.3177 1.50234C12.4474 1.48359 12.5792 1.48359 12.7089 1.50234C12.8552 1.52348 12.9974 1.5768 13.2818 1.68344L20.616 4.43379C21.64 4.81779 22.152 5.00979 22.5293 5.34231C22.8627 5.63605 23.1194 6.00656 23.2774 6.4218C23.4563 6.89184 23.4563 7.43865 23.4563 8.53228V15.074Z" stroke="#2468FF" stroke-width="2.2" stroke-linecap="round" stroke-linejoin="round"/>
</svg>
