<svg width="25" height="25" viewBox="0 0 25 25" fill="none" xmlns="http://www.w3.org/2000/svg">
<path d="M14.7588 23.8467H6.68164M6.68164 23.8467C4.7968 23.8467 3.85437 23.8467 3.13446 23.4799C2.5012 23.1572 1.98635 22.6424 1.66369 22.0091C1.29688 21.2892 1.29688 20.3468 1.29688 18.4619M6.68164 23.8467H7.13037C9.01522 23.8467 9.95764 23.8467 10.6776 23.4799C11.3108 23.1572 11.8257 22.6424 12.1483 22.0091C12.5151 21.2892 12.5151 20.3468 12.5151 18.4619V18.0132C12.5151 16.1283 12.5151 15.1859 12.1483 14.466C11.8257 13.8327 11.3108 13.3179 10.6776 12.9952C9.95764 12.6284 9.01522 12.6284 7.13037 12.6284H6.68164C4.7968 12.6284 3.85437 12.6284 3.13446 12.9952C2.5012 13.3179 1.98635 13.8327 1.66369 14.466C1.29688 15.1859 1.29688 16.1283 1.29688 18.0132V18.4619M1.29688 18.4619V10.3848M10.2715 1.41016H14.7588M23.7334 10.3848V14.8721M19.2461 23.8467C20.2894 23.8467 20.811 23.8467 21.239 23.732C22.4004 23.4208 23.3075 22.5137 23.6187 21.3523C23.7334 20.9243 23.7334 20.4026 23.7334 19.3594M23.7334 5.89746C23.7334 4.85419 23.7334 4.33256 23.6187 3.90458C23.3075 2.74318 22.4004 1.83603 21.239 1.52483C20.811 1.41016 20.2894 1.41016 19.2461 1.41016M5.78418 1.41016C4.74091 1.41016 4.21928 1.41016 3.7913 1.52483C2.6299 1.83603 1.72275 2.74318 1.41155 3.90458C1.29688 4.33256 1.29688 4.85419 1.29688 5.89746" stroke="#2468FF" stroke-width="2.3" stroke-linecap="round" stroke-linejoin="round"/>
</svg>
