<svg width="18" height="20" viewBox="0 0 18 20" fill="none" xmlns="http://www.w3.org/2000/svg">
<path fill-rule="evenodd" clip-rule="evenodd" d="M7.20462 4.48385C7.15439 4.18582 7.11655 3.89116 7.0921 3.59648C7.05527 3.15445 7.07804 2.70904 7.06498 2.26701C7.05929 2.07948 7.03685 1.59058 7.04589 1.52025C7.12793 0.907439 7.62253 0.813664 7.7672 0.796921C7.83719 0.786875 8.55582 0.706541 8.71086 1.50353C8.90107 2.47801 8.96202 3.45917 8.89471 4.42025C9.05176 5.23733 9.32034 6.05105 9.67496 6.78777C11.0861 9.71789 13.7751 10.0025 16.6885 9.97574C17.1365 9.96904 17.5086 10.3207 17.532 10.766C17.5555 11.2148 17.222 11.6032 16.7759 11.6434C15.1474 11.8008 12.2581 13.1068 11.2592 14.4664C11.0503 14.751 10.9287 15.4375 10.768 16.1106C10.5436 17.0449 10.2767 17.9691 9.97769 18.3576C9.93281 18.4178 9.3873 19.034 9.22455 19.1244C8.83342 19.3388 8.52033 19.2148 8.34251 19.101C8.1647 18.9871 7.96344 18.7628 7.88307 18.391C7.79901 18.0026 7.87001 17.2056 7.85695 17.0348C7.80939 16.4153 7.6855 15.1997 7.43268 14.1549C7.29638 13.5923 7.15104 13.0733 6.9106 12.8154C6.02052 11.8611 4.59732 12.0017 3.39881 12.1591C3.26118 12.1758 3.12355 12.196 2.98625 12.2127C2.49835 12.3567 1.98029 12.4638 1.43278 12.5275C0.60598 12.6246 0.470031 11.8644 0.462664 11.8142C0.44726 11.7037 0.389991 11.1344 1.01319 10.9067C1.08116 10.8833 1.58281 10.7727 1.77603 10.7292C2.04526 10.6689 2.31751 10.6221 2.59076 10.5785C5.41339 9.70116 6.94643 7.23649 7.20462 4.48385ZM8.1734 7.52786C9.23896 9.73131 10.856 10.7962 12.7728 11.2784H12.7725C11.5757 11.9046 10.487 12.6882 9.91003 13.4752C9.69103 13.7732 9.49011 14.3726 9.30895 15.0457C9.21083 14.4195 9.07823 13.7531 8.90309 13.1838C8.70384 12.5341 8.4356 11.995 8.13622 11.6736C7.55824 11.054 6.8329 10.7091 6.05299 10.5383C6.98661 9.71121 7.69454 8.67981 8.1734 7.52786Z" fill="#2468FF"/>
</svg>
