<svg width="27" height="27" viewBox="0 0 27 27" fill="none" xmlns="http://www.w3.org/2000/svg">
<path d="M12.3356 2.50924H8.05605C5.80907 2.50924 4.68558 2.50924 3.82735 2.94653C3.07243 3.33118 2.45866 3.94495 2.07401 4.69987C1.63672 5.5581 1.63672 6.68159 1.63672 8.92857V15.8828C1.63672 17.1265 1.63672 17.7484 1.77343 18.2586C2.14441 19.6431 3.22586 20.7246 4.6104 21.0956C5.1206 21.2323 5.74245 21.2323 6.98616 21.2323V24.3557C6.98616 25.0683 6.98616 25.4246 7.13224 25.6076C7.25928 25.7668 7.45192 25.8594 7.65556 25.8591C7.88972 25.8589 8.16795 25.6363 8.7244 25.1911L11.9146 22.639C12.5663 22.1176 12.8922 21.8569 13.255 21.6715C13.5769 21.5071 13.9196 21.3869 14.2737 21.3142C14.6729 21.2323 15.0902 21.2323 15.9247 21.2323H17.9525C20.1995 21.2323 21.323 21.2323 22.1812 20.795C22.9361 20.4103 23.5499 19.7966 23.9346 19.0416C24.3718 18.1834 24.3718 17.0599 24.3718 14.813V14.5455M24.5341 2.34699C26.1009 3.9138 26.1009 6.45411 24.5341 8.02093C22.9673 9.58774 20.427 9.58774 18.8602 8.02093C17.2933 6.45411 17.2933 3.9138 18.8602 2.34699C20.427 0.780171 22.9673 0.780171 24.5341 2.34699Z" stroke="#2468FF" stroke-width="2.2" stroke-linecap="round" stroke-linejoin="round"/>
</svg>
