<svg width="28" height="25" viewBox="0 0 28 25" fill="none" xmlns="http://www.w3.org/2000/svg">
<path d="M19.2436 2.61079C21.0918 3.52924 22.3619 5.43642 22.3619 7.64024C22.3619 9.84407 21.0918 11.7512 19.2436 12.6697M21.7382 19.1983C23.6235 20.0514 25.3211 21.4417 26.7275 23.2316M1.78125 23.2316C4.20913 20.1415 7.50538 18.2424 11.1361 18.2424C14.7668 18.2424 18.063 20.1415 20.4909 23.2316M16.749 7.64024C16.749 10.7402 14.236 13.2531 11.1361 13.2531C8.03616 13.2531 5.52318 10.7402 5.52318 7.64024C5.52318 4.54032 8.03616 2.02734 11.1361 2.02734C14.236 2.02734 16.749 4.54032 16.749 7.64024Z" stroke="#2468FF" stroke-width="2.3" stroke-linecap="round" stroke-linejoin="round"/>
</svg>
